<mxfile host="app.diagrams.net" agent="Mozilla/5.0 (Windows NT 10.0; Win64; x64) AppleWebKit/537.36 (KHTML, like Gecko) Chrome/138.0.0.0 Safari/537.36" version="28.0.4">
  <diagram name="Page-1" id="oh0I2z6rUmk7tpq_Uz8h">
    <mxGraphModel dx="1389" dy="801" grid="1" gridSize="10" guides="1" tooltips="1" connect="1" arrows="1" fold="1" page="1" pageScale="1" pageWidth="850" pageHeight="1100" math="0" shadow="0">
      <root>
        <mxCell id="0" />
        <mxCell id="1" parent="0" />
        <mxCell id="SBg4fu78WVAu0Ns62MvC-1" value="START" style="strokeWidth=2;html=1;shape=mxgraph.flowchart.start_1;whiteSpace=wrap;" vertex="1" parent="1">
          <mxGeometry x="390" y="130" width="100" height="60" as="geometry" />
        </mxCell>
        <mxCell id="SBg4fu78WVAu0Ns62MvC-16" value="" style="edgeStyle=orthogonalEdgeStyle;rounded=0;orthogonalLoop=1;jettySize=auto;html=1;" edge="1" parent="1" source="SBg4fu78WVAu0Ns62MvC-4" target="SBg4fu78WVAu0Ns62MvC-15">
          <mxGeometry relative="1" as="geometry" />
        </mxCell>
        <mxCell id="SBg4fu78WVAu0Ns62MvC-4" value="IF&amp;nbsp;&lt;br&gt;PRECONDITION" style="strokeWidth=2;html=1;shape=mxgraph.flowchart.decision;whiteSpace=wrap;" vertex="1" parent="1">
          <mxGeometry x="380" y="220" width="120" height="100" as="geometry" />
        </mxCell>
        <mxCell id="SBg4fu78WVAu0Ns62MvC-8" value="" style="endArrow=none;html=1;rounded=0;entryX=0.5;entryY=1;entryDx=0;entryDy=0;entryPerimeter=0;" edge="1" parent="1" target="SBg4fu78WVAu0Ns62MvC-1">
          <mxGeometry width="50" height="50" relative="1" as="geometry">
            <mxPoint x="440" y="220" as="sourcePoint" />
            <mxPoint x="450" y="180" as="targetPoint" />
          </mxGeometry>
        </mxCell>
        <mxCell id="SBg4fu78WVAu0Ns62MvC-9" value="YES" style="text;html=1;align=center;verticalAlign=middle;resizable=0;points=[];autosize=1;strokeColor=none;fillColor=none;" vertex="1" parent="1">
          <mxGeometry x="270" y="328" width="50" height="30" as="geometry" />
        </mxCell>
        <mxCell id="SBg4fu78WVAu0Ns62MvC-22" value="" style="edgeStyle=orthogonalEdgeStyle;rounded=0;orthogonalLoop=1;jettySize=auto;html=1;fillColor=#fff2cc;strokeColor=#d6b656;" edge="1" parent="1" source="SBg4fu78WVAu0Ns62MvC-11" target="SBg4fu78WVAu0Ns62MvC-21">
          <mxGeometry relative="1" as="geometry" />
        </mxCell>
        <mxCell id="SBg4fu78WVAu0Ns62MvC-11" value="execute_row(precon_row)" style="rounded=1;whiteSpace=wrap;html=1;" vertex="1" parent="1">
          <mxGeometry x="200" y="380" width="150" height="50" as="geometry" />
        </mxCell>
        <mxCell id="SBg4fu78WVAu0Ns62MvC-13" value="" style="endArrow=classic;html=1;rounded=0;exitX=0.237;exitY=0.764;exitDx=0;exitDy=0;exitPerimeter=0;" edge="1" parent="1" source="SBg4fu78WVAu0Ns62MvC-4">
          <mxGeometry width="50" height="50" relative="1" as="geometry">
            <mxPoint x="360" y="350" as="sourcePoint" />
            <mxPoint x="270" y="379" as="targetPoint" />
            <Array as="points">
              <mxPoint x="270" y="296" />
            </Array>
          </mxGeometry>
        </mxCell>
        <mxCell id="SBg4fu78WVAu0Ns62MvC-20" value="" style="edgeStyle=orthogonalEdgeStyle;rounded=0;orthogonalLoop=1;jettySize=auto;html=1;" edge="1" parent="1" source="SBg4fu78WVAu0Ns62MvC-15" target="SBg4fu78WVAu0Ns62MvC-19">
          <mxGeometry relative="1" as="geometry" />
        </mxCell>
        <mxCell id="SBg4fu78WVAu0Ns62MvC-15" value="execute_row(row)" style="rounded=1;whiteSpace=wrap;html=1;strokeWidth=2;" vertex="1" parent="1">
          <mxGeometry x="380" y="490" width="120" height="40" as="geometry" />
        </mxCell>
        <mxCell id="SBg4fu78WVAu0Ns62MvC-18" value="" style="endArrow=classic;html=1;rounded=0;entryX=0;entryY=0.5;entryDx=0;entryDy=0;" edge="1" parent="1" target="SBg4fu78WVAu0Ns62MvC-15">
          <mxGeometry width="50" height="50" relative="1" as="geometry">
            <mxPoint x="270" y="430" as="sourcePoint" />
            <mxPoint x="260" y="480" as="targetPoint" />
            <Array as="points">
              <mxPoint x="270" y="510" />
            </Array>
          </mxGeometry>
        </mxCell>
        <mxCell id="SBg4fu78WVAu0Ns62MvC-46" style="edgeStyle=orthogonalEdgeStyle;rounded=0;orthogonalLoop=1;jettySize=auto;html=1;entryX=0.5;entryY=0;entryDx=0;entryDy=0;" edge="1" parent="1" source="SBg4fu78WVAu0Ns62MvC-19" target="SBg4fu78WVAu0Ns62MvC-43">
          <mxGeometry relative="1" as="geometry" />
        </mxCell>
        <mxCell id="SBg4fu78WVAu0Ns62MvC-19" value="if Postconditions" style="rhombus;whiteSpace=wrap;html=1;rounded=1;strokeWidth=2;" vertex="1" parent="1">
          <mxGeometry x="390" y="590" width="100" height="80" as="geometry" />
        </mxCell>
        <mxCell id="SBg4fu78WVAu0Ns62MvC-21" value="STORE RESPONSE( Access Token for auth, etc)" style="rounded=1;whiteSpace=wrap;html=1;" vertex="1" parent="1">
          <mxGeometry x="600" y="380" width="150" height="50" as="geometry" />
        </mxCell>
        <mxCell id="SBg4fu78WVAu0Ns62MvC-23" value="Retreives Info from api and compares to excel data" style="rounded=1;whiteSpace=wrap;html=1;" vertex="1" parent="1">
          <mxGeometry x="600" y="485" width="150" height="50" as="geometry" />
        </mxCell>
        <mxCell id="SBg4fu78WVAu0Ns62MvC-24" value="" style="edgeStyle=orthogonalEdgeStyle;rounded=0;orthogonalLoop=1;jettySize=auto;html=1;fillColor=#fff2cc;strokeColor=#d6b656;entryX=0;entryY=0.5;entryDx=0;entryDy=0;" edge="1" parent="1" target="SBg4fu78WVAu0Ns62MvC-23">
          <mxGeometry relative="1" as="geometry">
            <mxPoint x="500" y="509.52" as="sourcePoint" />
            <mxPoint x="580" y="509.52" as="targetPoint" />
          </mxGeometry>
        </mxCell>
        <mxCell id="SBg4fu78WVAu0Ns62MvC-44" value="" style="edgeStyle=orthogonalEdgeStyle;rounded=0;orthogonalLoop=1;jettySize=auto;html=1;entryX=0.5;entryY=0;entryDx=0;entryDy=0;exitX=1;exitY=0.5;exitDx=0;exitDy=0;" edge="1" parent="1" source="SBg4fu78WVAu0Ns62MvC-28" target="SBg4fu78WVAu0Ns62MvC-43">
          <mxGeometry relative="1" as="geometry">
            <mxPoint x="340" y="745" as="sourcePoint" />
            <Array as="points">
              <mxPoint x="275" y="745" />
              <mxPoint x="275" y="845" />
              <mxPoint x="437" y="845" />
            </Array>
          </mxGeometry>
        </mxCell>
        <mxCell id="SBg4fu78WVAu0Ns62MvC-28" value="execute_row(postcon_row)" style="rounded=1;whiteSpace=wrap;html=1;" vertex="1" parent="1">
          <mxGeometry x="200" y="720" width="150" height="50" as="geometry" />
        </mxCell>
        <mxCell id="SBg4fu78WVAu0Ns62MvC-32" style="edgeStyle=orthogonalEdgeStyle;rounded=0;orthogonalLoop=1;jettySize=auto;html=1;entryX=0.4;entryY=0;entryDx=0;entryDy=0;entryPerimeter=0;" edge="1" parent="1" source="SBg4fu78WVAu0Ns62MvC-19" target="SBg4fu78WVAu0Ns62MvC-28">
          <mxGeometry relative="1" as="geometry" />
        </mxCell>
        <mxCell id="SBg4fu78WVAu0Ns62MvC-39" style="edgeStyle=orthogonalEdgeStyle;rounded=0;orthogonalLoop=1;jettySize=auto;html=1;exitX=1;exitY=0.5;exitDx=0;exitDy=0;" edge="1" parent="1">
          <mxGeometry relative="1" as="geometry">
            <mxPoint x="490" y="158" as="targetPoint" />
            <mxPoint x="500" y="933" as="sourcePoint" />
            <Array as="points">
              <mxPoint x="810" y="943" />
              <mxPoint x="810" y="158" />
            </Array>
          </mxGeometry>
        </mxCell>
        <mxCell id="SBg4fu78WVAu0Ns62MvC-34" value="MOVE TO NEXT ROW" style="ellipse;whiteSpace=wrap;html=1;rounded=1;" vertex="1" parent="1">
          <mxGeometry x="385" y="900" width="115" height="50" as="geometry" />
        </mxCell>
        <mxCell id="SBg4fu78WVAu0Ns62MvC-37" value="YES" style="text;html=1;align=center;verticalAlign=middle;resizable=0;points=[];autosize=1;strokeColor=none;fillColor=none;" vertex="1" parent="1">
          <mxGeometry x="235" y="598" width="50" height="30" as="geometry" />
        </mxCell>
        <mxCell id="SBg4fu78WVAu0Ns62MvC-38" value="NO" style="text;html=1;align=center;verticalAlign=middle;resizable=0;points=[];autosize=1;strokeColor=none;fillColor=none;" vertex="1" parent="1">
          <mxGeometry x="460" y="670" width="40" height="30" as="geometry" />
        </mxCell>
        <mxCell id="SBg4fu78WVAu0Ns62MvC-45" value="" style="edgeStyle=orthogonalEdgeStyle;rounded=0;orthogonalLoop=1;jettySize=auto;html=1;" edge="1" parent="1" source="SBg4fu78WVAu0Ns62MvC-43" target="SBg4fu78WVAu0Ns62MvC-34">
          <mxGeometry relative="1" as="geometry">
            <Array as="points">
              <mxPoint x="437" y="890" />
              <mxPoint x="443" y="890" />
            </Array>
          </mxGeometry>
        </mxCell>
        <mxCell id="SBg4fu78WVAu0Ns62MvC-43" value="Clear Session&amp;nbsp;" style="whiteSpace=wrap;html=1;rounded=1;" vertex="1" parent="1">
          <mxGeometry x="385" y="830" width="105" height="30" as="geometry" />
        </mxCell>
      </root>
    </mxGraphModel>
  </diagram>
</mxfile>
